<mxfile host="app.diagrams.net" modified="2023-06-23T08:47:17.937Z" agent="Mozilla/5.0 (Macintosh; Intel Mac OS X 10_15_7) AppleWebKit/605.1.15 (KHTML, like Gecko) Version/16.5 Safari/605.1.15" etag="u4b4yi7OlHYt9obF8EP8" version="21.5.0" type="device">
  <diagram name="Страница 1" id="3InGYUYZm7vuK8armNWO">
    <mxGraphModel dx="2258" dy="4225" grid="1" gridSize="10" guides="1" tooltips="1" connect="1" arrows="1" fold="1" page="1" pageScale="1" pageWidth="827" pageHeight="1169" math="0" shadow="0">
      <root>
        <mxCell id="0" />
        <mxCell id="1" parent="0" />
        <mxCell id="fEy40DQeF1FZ9S2ST5E0-1" value="UserDict" style="rounded=0;whiteSpace=wrap;html=1;fontSize=16;" vertex="1" parent="1">
          <mxGeometry x="-478" y="-1090" width="200" height="52" as="geometry" />
        </mxCell>
        <mxCell id="fEy40DQeF1FZ9S2ST5E0-19" value="Record" style="swimlane;fontStyle=0;childLayout=stackLayout;horizontal=1;startSize=57;horizontalStack=0;resizeParent=1;resizeParentMax=0;resizeLast=0;collapsible=1;marginBottom=0;whiteSpace=wrap;html=1;fontSize=16;" vertex="1" parent="1">
          <mxGeometry x="-210" y="-721" width="202" height="509" as="geometry">
            <mxRectangle x="-295" y="-533" width="87" height="57" as="alternateBounds" />
          </mxGeometry>
        </mxCell>
        <mxCell id="fEy40DQeF1FZ9S2ST5E0-23" value="Subrecord" style="swimlane;fontStyle=0;childLayout=stackLayout;horizontal=1;startSize=30;horizontalStack=0;resizeParent=1;resizeParentMax=0;resizeLast=0;collapsible=1;marginBottom=0;whiteSpace=wrap;html=1;fontSize=16;" vertex="1" parent="fEy40DQeF1FZ9S2ST5E0-19">
          <mxGeometry y="57" width="202" height="89" as="geometry" />
        </mxCell>
        <mxCell id="fEy40DQeF1FZ9S2ST5E0-58" value="&lt;div&gt;&amp;nbsp; &amp;nbsp; &amp;nbsp;+emails: List&lt;/div&gt;" style="text;strokeColor=none;fillColor=none;html=1;whiteSpace=wrap;verticalAlign=middle;overflow=hidden;fontSize=16;" vertex="1" parent="fEy40DQeF1FZ9S2ST5E0-23">
          <mxGeometry y="30" width="202" height="29" as="geometry" />
        </mxCell>
        <mxCell id="fEy40DQeF1FZ9S2ST5E0-24" value="&amp;nbsp; &amp;nbsp; +subrecord: Any" style="text;strokeColor=none;fillColor=none;align=left;verticalAlign=middle;spacingLeft=4;spacingRight=4;overflow=hidden;points=[[0,0.5],[1,0.5]];portConstraint=eastwest;rotatable=0;whiteSpace=wrap;html=1;fontSize=16;" vertex="1" parent="fEy40DQeF1FZ9S2ST5E0-23">
          <mxGeometry y="59" width="202" height="30" as="geometry" />
        </mxCell>
        <mxCell id="fEy40DQeF1FZ9S2ST5E0-52" value="+user: User" style="text;strokeColor=none;fillColor=none;html=1;whiteSpace=wrap;verticalAlign=middle;overflow=hidden;fontSize=16;" vertex="1" parent="fEy40DQeF1FZ9S2ST5E0-19">
          <mxGeometry y="146" width="202" height="34" as="geometry" />
        </mxCell>
        <mxCell id="fEy40DQeF1FZ9S2ST5E0-53" value="&lt;div&gt;+phone_numbers: List&lt;/div&gt;" style="text;strokeColor=none;fillColor=none;html=1;whiteSpace=wrap;verticalAlign=middle;overflow=hidden;fontSize=16;" vertex="1" parent="fEy40DQeF1FZ9S2ST5E0-19">
          <mxGeometry y="180" width="202" height="31" as="geometry" />
        </mxCell>
        <mxCell id="fEy40DQeF1FZ9S2ST5E0-54" value="&lt;div&gt;+emails: List&lt;/div&gt;" style="text;strokeColor=none;fillColor=none;html=1;whiteSpace=wrap;verticalAlign=middle;overflow=hidden;fontSize=16;" vertex="1" parent="fEy40DQeF1FZ9S2ST5E0-19">
          <mxGeometry y="211" width="202" height="29" as="geometry" />
        </mxCell>
        <mxCell id="fEy40DQeF1FZ9S2ST5E0-60" value="" style="line;strokeWidth=4;html=1;perimeter=backbonePerimeter;points=[];outlineConnect=0;fontSize=16;" vertex="1" parent="fEy40DQeF1FZ9S2ST5E0-19">
          <mxGeometry y="240" width="202" height="10" as="geometry" />
        </mxCell>
        <mxCell id="fEy40DQeF1FZ9S2ST5E0-59" value="+add_phone_number()" style="text;strokeColor=none;fillColor=none;html=1;whiteSpace=wrap;verticalAlign=middle;overflow=hidden;fontSize=16;" vertex="1" parent="fEy40DQeF1FZ9S2ST5E0-19">
          <mxGeometry y="250" width="202" height="36" as="geometry" />
        </mxCell>
        <mxCell id="fEy40DQeF1FZ9S2ST5E0-61" value="+add_email()" style="text;strokeColor=none;fillColor=none;html=1;whiteSpace=wrap;verticalAlign=middle;overflow=hidden;fontSize=16;" vertex="1" parent="fEy40DQeF1FZ9S2ST5E0-19">
          <mxGeometry y="286" width="202" height="33" as="geometry" />
        </mxCell>
        <mxCell id="fEy40DQeF1FZ9S2ST5E0-62" value="+change_phone_number()" style="text;strokeColor=none;fillColor=none;html=1;whiteSpace=wrap;verticalAlign=middle;overflow=hidden;fontSize=16;" vertex="1" parent="fEy40DQeF1FZ9S2ST5E0-19">
          <mxGeometry y="319" width="202" height="29" as="geometry" />
        </mxCell>
        <mxCell id="fEy40DQeF1FZ9S2ST5E0-63" value="+change_email()" style="text;strokeColor=none;fillColor=none;html=1;whiteSpace=wrap;verticalAlign=middle;overflow=hidden;fontSize=16;" vertex="1" parent="fEy40DQeF1FZ9S2ST5E0-19">
          <mxGeometry y="348" width="202" height="31" as="geometry" />
        </mxCell>
        <mxCell id="fEy40DQeF1FZ9S2ST5E0-64" value="+delete_phone_number()" style="text;strokeColor=none;fillColor=none;html=1;whiteSpace=wrap;verticalAlign=middle;overflow=hidden;fontSize=16;" vertex="1" parent="fEy40DQeF1FZ9S2ST5E0-19">
          <mxGeometry y="379" width="202" height="35" as="geometry" />
        </mxCell>
        <mxCell id="fEy40DQeF1FZ9S2ST5E0-65" value="+delete_email()" style="text;strokeColor=none;fillColor=none;html=1;whiteSpace=wrap;verticalAlign=middle;overflow=hidden;fontSize=16;" vertex="1" parent="fEy40DQeF1FZ9S2ST5E0-19">
          <mxGeometry y="414" width="202" height="36" as="geometry" />
        </mxCell>
        <mxCell id="fEy40DQeF1FZ9S2ST5E0-66" value="+add_birthday()" style="text;strokeColor=none;fillColor=none;html=1;whiteSpace=wrap;verticalAlign=middle;overflow=hidden;fontSize=16;" vertex="1" parent="fEy40DQeF1FZ9S2ST5E0-19">
          <mxGeometry y="450" width="202" height="30" as="geometry" />
        </mxCell>
        <mxCell id="fEy40DQeF1FZ9S2ST5E0-67" value="+days_to_birthday()" style="text;strokeColor=none;fillColor=none;html=1;whiteSpace=wrap;verticalAlign=middle;overflow=hidden;fontSize=16;" vertex="1" parent="fEy40DQeF1FZ9S2ST5E0-19">
          <mxGeometry y="480" width="202" height="29" as="geometry" />
        </mxCell>
        <mxCell id="fEy40DQeF1FZ9S2ST5E0-70" value="AddressBook" style="swimlane;fontStyle=0;childLayout=stackLayout;horizontal=1;startSize=57;horizontalStack=0;resizeParent=1;resizeParentMax=0;resizeLast=0;collapsible=1;marginBottom=0;whiteSpace=wrap;html=1;fontSize=16;" vertex="1" parent="1">
          <mxGeometry x="-479" y="-721" width="202" height="270" as="geometry">
            <mxRectangle x="-295" y="-533" width="87" height="57" as="alternateBounds" />
          </mxGeometry>
        </mxCell>
        <mxCell id="fEy40DQeF1FZ9S2ST5E0-82" value="+get_contact()" style="text;strokeColor=none;fillColor=none;html=1;whiteSpace=wrap;verticalAlign=middle;overflow=hidden;fontSize=16;" vertex="1" parent="fEy40DQeF1FZ9S2ST5E0-70">
          <mxGeometry y="57" width="202" height="33" as="geometry" />
        </mxCell>
        <mxCell id="fEy40DQeF1FZ9S2ST5E0-85" value="+add_record()" style="text;strokeColor=none;fillColor=none;html=1;whiteSpace=wrap;verticalAlign=middle;overflow=hidden;fontSize=16;" vertex="1" parent="fEy40DQeF1FZ9S2ST5E0-70">
          <mxGeometry y="90" width="202" height="30" as="geometry" />
        </mxCell>
        <mxCell id="fEy40DQeF1FZ9S2ST5E0-86" value="+delete_record()" style="text;strokeColor=none;fillColor=none;html=1;whiteSpace=wrap;verticalAlign=middle;overflow=hidden;fontSize=16;" vertex="1" parent="fEy40DQeF1FZ9S2ST5E0-70">
          <mxGeometry y="120" width="202" height="30" as="geometry" />
        </mxCell>
        <mxCell id="fEy40DQeF1FZ9S2ST5E0-87" value="+sort_addressbook()" style="text;strokeColor=none;fillColor=none;html=1;whiteSpace=wrap;verticalAlign=middle;overflow=hidden;fontSize=16;" vertex="1" parent="fEy40DQeF1FZ9S2ST5E0-70">
          <mxGeometry y="150" width="202" height="30" as="geometry" />
        </mxCell>
        <mxCell id="fEy40DQeF1FZ9S2ST5E0-88" value="+search()" style="text;strokeColor=none;fillColor=none;html=1;whiteSpace=wrap;verticalAlign=middle;overflow=hidden;fontSize=16;" vertex="1" parent="fEy40DQeF1FZ9S2ST5E0-70">
          <mxGeometry y="180" width="202" height="30" as="geometry" />
        </mxCell>
        <mxCell id="fEy40DQeF1FZ9S2ST5E0-89" value="+save_records_to_file()" style="text;strokeColor=none;fillColor=none;html=1;whiteSpace=wrap;verticalAlign=middle;overflow=hidden;fontSize=16;" vertex="1" parent="fEy40DQeF1FZ9S2ST5E0-70">
          <mxGeometry y="210" width="202" height="30" as="geometry" />
        </mxCell>
        <mxCell id="fEy40DQeF1FZ9S2ST5E0-90" value="+read_records_from_file()" style="text;strokeColor=none;fillColor=none;html=1;whiteSpace=wrap;verticalAlign=middle;overflow=hidden;fontSize=16;" vertex="1" parent="fEy40DQeF1FZ9S2ST5E0-70">
          <mxGeometry y="240" width="202" height="30" as="geometry" />
        </mxCell>
        <mxCell id="fEy40DQeF1FZ9S2ST5E0-91" value="Email" style="swimlane;fontStyle=0;childLayout=stackLayout;horizontal=1;startSize=57;horizontalStack=0;resizeParent=1;resizeParentMax=0;resizeLast=0;collapsible=1;marginBottom=0;whiteSpace=wrap;html=1;fontSize=16;" vertex="1" parent="1">
          <mxGeometry x="80.00000000000001" y="-440" width="202" height="137" as="geometry">
            <mxRectangle x="-295" y="-533" width="87" height="57" as="alternateBounds" />
          </mxGeometry>
        </mxCell>
        <mxCell id="fEy40DQeF1FZ9S2ST5E0-101" value="&lt;div&gt;+emal: str | None&lt;/div&gt;" style="text;strokeColor=none;fillColor=none;html=1;whiteSpace=wrap;verticalAlign=middle;overflow=hidden;fontSize=16;" vertex="1" parent="fEy40DQeF1FZ9S2ST5E0-91">
          <mxGeometry y="57" width="202" height="80" as="geometry" />
        </mxCell>
        <mxCell id="fEy40DQeF1FZ9S2ST5E0-103" value="User" style="swimlane;fontStyle=0;childLayout=stackLayout;horizontal=1;startSize=57;horizontalStack=0;resizeParent=1;resizeParentMax=0;resizeLast=0;collapsible=1;marginBottom=0;whiteSpace=wrap;html=1;fontSize=16;" vertex="1" parent="1">
          <mxGeometry x="80" y="-721" width="202" height="136" as="geometry">
            <mxRectangle x="-295" y="-533" width="87" height="57" as="alternateBounds" />
          </mxGeometry>
        </mxCell>
        <mxCell id="fEy40DQeF1FZ9S2ST5E0-104" value="&lt;div&gt;-birthday_date: date | None&lt;/div&gt;" style="text;strokeColor=none;fillColor=none;html=1;whiteSpace=wrap;verticalAlign=middle;overflow=hidden;fontSize=16;" vertex="1" parent="fEy40DQeF1FZ9S2ST5E0-103">
          <mxGeometry y="57" width="202" height="41" as="geometry" />
        </mxCell>
        <mxCell id="fEy40DQeF1FZ9S2ST5E0-106" value="&lt;div&gt;+name: str | None&lt;/div&gt;" style="text;strokeColor=none;fillColor=none;html=1;whiteSpace=wrap;verticalAlign=middle;overflow=hidden;fontSize=16;" vertex="1" parent="fEy40DQeF1FZ9S2ST5E0-103">
          <mxGeometry y="98" width="202" height="38" as="geometry" />
        </mxCell>
        <mxCell id="fEy40DQeF1FZ9S2ST5E0-107" value="Phone" style="swimlane;fontStyle=0;childLayout=stackLayout;horizontal=1;startSize=57;horizontalStack=0;resizeParent=1;resizeParentMax=0;resizeLast=0;collapsible=1;marginBottom=0;whiteSpace=wrap;html=1;fontSize=16;" vertex="1" parent="1">
          <mxGeometry x="80" y="-560" width="202" height="98" as="geometry">
            <mxRectangle x="-295" y="-533" width="87" height="57" as="alternateBounds" />
          </mxGeometry>
        </mxCell>
        <mxCell id="fEy40DQeF1FZ9S2ST5E0-108" value="+phone: str | None" style="text;strokeColor=none;fillColor=none;html=1;whiteSpace=wrap;verticalAlign=middle;overflow=hidden;fontSize=16;" vertex="1" parent="fEy40DQeF1FZ9S2ST5E0-107">
          <mxGeometry y="57" width="202" height="41" as="geometry" />
        </mxCell>
        <mxCell id="fEy40DQeF1FZ9S2ST5E0-118" style="edgeStyle=none;curved=1;rounded=0;orthogonalLoop=1;jettySize=auto;html=1;fontSize=12;startSize=8;endSize=8;entryX=0.99;entryY=0.055;entryDx=0;entryDy=0;entryPerimeter=0;" edge="1" parent="1" source="fEy40DQeF1FZ9S2ST5E0-110" target="fEy40DQeF1FZ9S2ST5E0-19">
          <mxGeometry relative="1" as="geometry" />
        </mxCell>
        <mxCell id="fEy40DQeF1FZ9S2ST5E0-110" value="" style="html=1;whiteSpace=wrap;aspect=fixed;shape=isoRectangle;fontSize=16;" vertex="1" parent="1">
          <mxGeometry y="-710" width="36.67" height="22" as="geometry" />
        </mxCell>
        <mxCell id="fEy40DQeF1FZ9S2ST5E0-114" value="" style="endArrow=none;html=1;rounded=0;fontSize=12;startSize=8;endSize=8;curved=1;entryX=0;entryY=0.25;entryDx=0;entryDy=0;exitX=0.845;exitY=0.591;exitDx=0;exitDy=0;exitPerimeter=0;" edge="1" parent="1" source="fEy40DQeF1FZ9S2ST5E0-110" target="fEy40DQeF1FZ9S2ST5E0-103">
          <mxGeometry relative="1" as="geometry">
            <mxPoint x="266" y="-593" as="sourcePoint" />
            <mxPoint x="426" y="-593" as="targetPoint" />
          </mxGeometry>
        </mxCell>
        <mxCell id="fEy40DQeF1FZ9S2ST5E0-115" value="" style="endArrow=none;html=1;rounded=0;fontSize=12;startSize=8;endSize=8;edgeStyle=orthogonalEdgeStyle;entryX=-0.015;entryY=0.204;entryDx=0;entryDy=0;entryPerimeter=0;" edge="1" parent="1" source="fEy40DQeF1FZ9S2ST5E0-110" target="fEy40DQeF1FZ9S2ST5E0-91">
          <mxGeometry relative="1" as="geometry">
            <mxPoint x="239" y="-385" as="sourcePoint" />
            <mxPoint x="399" y="-385" as="targetPoint" />
            <Array as="points">
              <mxPoint x="20" y="-410" />
              <mxPoint x="77" y="-410" />
            </Array>
          </mxGeometry>
        </mxCell>
        <mxCell id="fEy40DQeF1FZ9S2ST5E0-116" value="" style="endArrow=none;html=1;rounded=0;fontSize=12;startSize=8;endSize=8;edgeStyle=orthogonalEdgeStyle;entryX=-0.005;entryY=0.388;entryDx=0;entryDy=0;entryPerimeter=0;exitX=0.545;exitY=0.864;exitDx=0;exitDy=0;exitPerimeter=0;" edge="1" parent="1" source="fEy40DQeF1FZ9S2ST5E0-110" target="fEy40DQeF1FZ9S2ST5E0-107">
          <mxGeometry relative="1" as="geometry">
            <mxPoint x="219.3900000000001" y="-584" as="sourcePoint" />
            <mxPoint x="423" y="-160.0340000000001" as="targetPoint" />
            <Array as="points">
              <mxPoint x="20" y="-530" />
              <mxPoint x="79" y="-530" />
            </Array>
          </mxGeometry>
        </mxCell>
        <mxCell id="fEy40DQeF1FZ9S2ST5E0-117" value="" style="endArrow=none;html=1;rounded=0;fontSize=12;startSize=8;endSize=8;edgeStyle=orthogonalEdgeStyle;entryX=0.5;entryY=0;entryDx=0;entryDy=0;exitX=0.5;exitY=1;exitDx=0;exitDy=0;" edge="1" parent="1" source="fEy40DQeF1FZ9S2ST5E0-1" target="fEy40DQeF1FZ9S2ST5E0-70">
          <mxGeometry relative="1" as="geometry">
            <mxPoint x="-355" y="-760" as="sourcePoint" />
            <mxPoint x="-195" y="-760" as="targetPoint" />
          </mxGeometry>
        </mxCell>
        <mxCell id="fEy40DQeF1FZ9S2ST5E0-127" style="edgeStyle=none;curved=1;rounded=0;orthogonalLoop=1;jettySize=auto;html=1;entryX=1.005;entryY=0.096;entryDx=0;entryDy=0;entryPerimeter=0;fontSize=12;startSize=8;endSize=8;" edge="1" parent="1" source="fEy40DQeF1FZ9S2ST5E0-123" target="fEy40DQeF1FZ9S2ST5E0-70">
          <mxGeometry relative="1" as="geometry" />
        </mxCell>
        <mxCell id="fEy40DQeF1FZ9S2ST5E0-123" value="" style="strokeWidth=2;html=1;shape=mxgraph.flowchart.decision;whiteSpace=wrap;fontSize=16;" vertex="1" parent="1">
          <mxGeometry x="-270" y="-700" width="35" height="20" as="geometry" />
        </mxCell>
        <mxCell id="fEy40DQeF1FZ9S2ST5E0-125" value="" style="endArrow=none;html=1;rounded=0;fontSize=12;startSize=8;endSize=8;curved=1;entryX=0.005;entryY=0.057;entryDx=0;entryDy=0;entryPerimeter=0;exitX=1;exitY=0.5;exitDx=0;exitDy=0;exitPerimeter=0;" edge="1" parent="1" source="fEy40DQeF1FZ9S2ST5E0-123" target="fEy40DQeF1FZ9S2ST5E0-19">
          <mxGeometry relative="1" as="geometry">
            <mxPoint x="-60" y="-561" as="sourcePoint" />
            <mxPoint x="-12" y="-566" as="targetPoint" />
          </mxGeometry>
        </mxCell>
        <mxCell id="fEy40DQeF1FZ9S2ST5E0-128" value="Notes" style="swimlane;fontStyle=0;childLayout=stackLayout;horizontal=1;startSize=57;horizontalStack=0;resizeParent=1;resizeParentMax=0;resizeLast=0;collapsible=1;marginBottom=0;whiteSpace=wrap;html=1;fontSize=16;" vertex="1" parent="1">
          <mxGeometry x="-710" y="-722.5" width="202" height="273" as="geometry">
            <mxRectangle x="-295" y="-533" width="87" height="57" as="alternateBounds" />
          </mxGeometry>
        </mxCell>
        <mxCell id="fEy40DQeF1FZ9S2ST5E0-134" value="+add_note()" style="text;strokeColor=none;fillColor=none;html=1;whiteSpace=wrap;verticalAlign=middle;overflow=hidden;fontSize=16;" vertex="1" parent="fEy40DQeF1FZ9S2ST5E0-128">
          <mxGeometry y="57" width="202" height="36" as="geometry" />
        </mxCell>
        <mxCell id="fEy40DQeF1FZ9S2ST5E0-135" value="+find()" style="text;strokeColor=none;fillColor=none;html=1;whiteSpace=wrap;verticalAlign=middle;overflow=hidden;fontSize=16;" vertex="1" parent="fEy40DQeF1FZ9S2ST5E0-128">
          <mxGeometry y="93" width="202" height="30" as="geometry" />
        </mxCell>
        <mxCell id="fEy40DQeF1FZ9S2ST5E0-169" value="+show_all_sorted_notes()" style="text;strokeColor=none;fillColor=none;html=1;whiteSpace=wrap;verticalAlign=middle;overflow=hidden;fontSize=16;" vertex="1" parent="fEy40DQeF1FZ9S2ST5E0-128">
          <mxGeometry y="123" width="202" height="30" as="geometry" />
        </mxCell>
        <mxCell id="fEy40DQeF1FZ9S2ST5E0-170" value="+del_notes()" style="text;strokeColor=none;fillColor=none;html=1;whiteSpace=wrap;verticalAlign=middle;overflow=hidden;fontSize=16;" vertex="1" parent="fEy40DQeF1FZ9S2ST5E0-128">
          <mxGeometry y="153" width="202" height="30" as="geometry" />
        </mxCell>
        <mxCell id="fEy40DQeF1FZ9S2ST5E0-171" value="+edit_notes()" style="text;strokeColor=none;fillColor=none;html=1;whiteSpace=wrap;verticalAlign=middle;overflow=hidden;fontSize=16;" vertex="1" parent="fEy40DQeF1FZ9S2ST5E0-128">
          <mxGeometry y="183" width="202" height="30" as="geometry" />
        </mxCell>
        <mxCell id="fEy40DQeF1FZ9S2ST5E0-172" value="+save()" style="text;strokeColor=none;fillColor=none;html=1;whiteSpace=wrap;verticalAlign=middle;overflow=hidden;fontSize=16;" vertex="1" parent="fEy40DQeF1FZ9S2ST5E0-128">
          <mxGeometry y="213" width="202" height="30" as="geometry" />
        </mxCell>
        <mxCell id="fEy40DQeF1FZ9S2ST5E0-173" value="+load()" style="text;strokeColor=none;fillColor=none;html=1;whiteSpace=wrap;verticalAlign=middle;overflow=hidden;fontSize=16;" vertex="1" parent="fEy40DQeF1FZ9S2ST5E0-128">
          <mxGeometry y="243" width="202" height="30" as="geometry" />
        </mxCell>
        <mxCell id="fEy40DQeF1FZ9S2ST5E0-136" value="" style="endArrow=none;html=1;rounded=0;fontSize=12;startSize=8;endSize=8;edgeStyle=orthogonalEdgeStyle;entryX=0.5;entryY=0;entryDx=0;entryDy=0;exitX=0.5;exitY=1;exitDx=0;exitDy=0;" edge="1" parent="1" source="fEy40DQeF1FZ9S2ST5E0-1" target="fEy40DQeF1FZ9S2ST5E0-128">
          <mxGeometry relative="1" as="geometry">
            <mxPoint x="-550" y="-807" as="sourcePoint" />
            <mxPoint x="-373" y="-585" as="targetPoint" />
          </mxGeometry>
        </mxCell>
        <mxCell id="fEy40DQeF1FZ9S2ST5E0-175" value="SortingFiles" style="swimlane;fontStyle=0;childLayout=stackLayout;horizontal=1;startSize=57;horizontalStack=0;resizeParent=1;resizeParentMax=0;resizeLast=0;collapsible=1;marginBottom=0;whiteSpace=wrap;html=1;fontSize=16;" vertex="1" parent="1">
          <mxGeometry x="36.67" y="-1090" width="202" height="321" as="geometry">
            <mxRectangle x="-295" y="-533" width="87" height="57" as="alternateBounds" />
          </mxGeometry>
        </mxCell>
        <mxCell id="fEy40DQeF1FZ9S2ST5E0-181" value="+path: Path" style="text;strokeColor=none;fillColor=none;html=1;whiteSpace=wrap;verticalAlign=middle;overflow=hidden;fontSize=16;" vertex="1" parent="fEy40DQeF1FZ9S2ST5E0-175">
          <mxGeometry y="57" width="202" height="33" as="geometry" />
        </mxCell>
        <mxCell id="fEy40DQeF1FZ9S2ST5E0-186" value="+lst_files_addresses: list" style="text;strokeColor=none;fillColor=none;html=1;whiteSpace=wrap;verticalAlign=middle;overflow=hidden;fontSize=16;" vertex="1" parent="fEy40DQeF1FZ9S2ST5E0-175">
          <mxGeometry y="90" width="202" height="33" as="geometry" />
        </mxCell>
        <mxCell id="fEy40DQeF1FZ9S2ST5E0-187" value="+lst_known: list" style="text;strokeColor=none;fillColor=none;html=1;whiteSpace=wrap;verticalAlign=middle;overflow=hidden;fontSize=16;" vertex="1" parent="fEy40DQeF1FZ9S2ST5E0-175">
          <mxGeometry y="123" width="202" height="33" as="geometry" />
        </mxCell>
        <mxCell id="fEy40DQeF1FZ9S2ST5E0-188" value="&lt;div&gt;+dict_extensions: dict&lt;/div&gt;" style="text;strokeColor=none;fillColor=none;html=1;whiteSpace=wrap;verticalAlign=middle;overflow=hidden;fontSize=16;" vertex="1" parent="fEy40DQeF1FZ9S2ST5E0-175">
          <mxGeometry y="156" width="202" height="33" as="geometry" />
        </mxCell>
        <mxCell id="fEy40DQeF1FZ9S2ST5E0-185" value="&lt;div&gt;+files_addresses()&lt;/div&gt;" style="text;strokeColor=none;fillColor=none;html=1;whiteSpace=wrap;verticalAlign=middle;overflow=hidden;fontSize=16;" vertex="1" parent="fEy40DQeF1FZ9S2ST5E0-175">
          <mxGeometry y="189" width="202" height="33" as="geometry" />
        </mxCell>
        <mxCell id="fEy40DQeF1FZ9S2ST5E0-182" value="&lt;div&gt;+sort_extensions()&lt;/div&gt;" style="text;strokeColor=none;fillColor=none;html=1;whiteSpace=wrap;verticalAlign=middle;overflow=hidden;fontSize=16;" vertex="1" parent="fEy40DQeF1FZ9S2ST5E0-175">
          <mxGeometry y="222" width="202" height="33" as="geometry" />
        </mxCell>
        <mxCell id="fEy40DQeF1FZ9S2ST5E0-183" value="&lt;div&gt;+removing_files()&lt;/div&gt;" style="text;strokeColor=none;fillColor=none;html=1;whiteSpace=wrap;verticalAlign=middle;overflow=hidden;fontSize=16;" vertex="1" parent="fEy40DQeF1FZ9S2ST5E0-175">
          <mxGeometry y="255" width="202" height="33" as="geometry" />
        </mxCell>
        <mxCell id="fEy40DQeF1FZ9S2ST5E0-184" value="&lt;div&gt;+del_empty_folders()&lt;/div&gt;" style="text;strokeColor=none;fillColor=none;html=1;whiteSpace=wrap;verticalAlign=middle;overflow=hidden;fontSize=16;" vertex="1" parent="fEy40DQeF1FZ9S2ST5E0-175">
          <mxGeometry y="288" width="202" height="33" as="geometry" />
        </mxCell>
        <mxCell id="fEy40DQeF1FZ9S2ST5E0-189" value="BOT" style="rounded=0;whiteSpace=wrap;html=1;fontSize=16;" vertex="1" parent="1">
          <mxGeometry x="-190" y="-1190" width="120" height="60" as="geometry" />
        </mxCell>
        <mxCell id="fEy40DQeF1FZ9S2ST5E0-191" value="" style="endArrow=none;html=1;rounded=0;fontSize=12;startSize=8;endSize=8;edgeStyle=orthogonalEdgeStyle;exitX=0.5;exitY=0;exitDx=0;exitDy=0;entryX=0.5;entryY=1;entryDx=0;entryDy=0;" edge="1" parent="1" source="fEy40DQeF1FZ9S2ST5E0-1" target="fEy40DQeF1FZ9S2ST5E0-189">
          <mxGeometry relative="1" as="geometry">
            <mxPoint x="-190" y="-880" as="sourcePoint" />
            <mxPoint x="-30" y="-880" as="targetPoint" />
          </mxGeometry>
        </mxCell>
        <mxCell id="fEy40DQeF1FZ9S2ST5E0-192" value="" style="endArrow=none;html=1;rounded=0;fontSize=12;startSize=8;endSize=8;edgeStyle=orthogonalEdgeStyle;exitX=0.5;exitY=1;exitDx=0;exitDy=0;entryX=0.5;entryY=0;entryDx=0;entryDy=0;" edge="1" parent="1" source="fEy40DQeF1FZ9S2ST5E0-189" target="fEy40DQeF1FZ9S2ST5E0-175">
          <mxGeometry relative="1" as="geometry">
            <mxPoint x="-140" y="-980" as="sourcePoint" />
            <mxPoint x="200" y="-990" as="targetPoint" />
          </mxGeometry>
        </mxCell>
      </root>
    </mxGraphModel>
  </diagram>
</mxfile>
